# xmcd CD database file
#
# Track frame offsets:
#	150
#	13075
#	28180
#	43953
#	57284
#	70185
#	83756
#	93176
#	105805
#	120124
#	133094
#	145178
#
# Disc length: 2096 seconds
#
# Revision: 2
# Processed by: cddbd v1.4PL0 Copyright (c) Steve Scherf et al.
# Submitted via: CDex 1.51
#
DISCID=96082e0c
DTITLE=Jose Feliciano - Noches De Bohemia
DYEAR=2000
DGENRE=Salsa
TTITLE0=Tu Me Haches Falta
TTITLE1=Luz y Sombra
TTITLE2=Nosotros
TTITLE3=Toda Una Vida
TTITLE4=Amor Gitano
TTITLE5=Contigo a la Distancia
TTITLE6=Dos Cosas
TTITLE7=Mis Noches Sin Ti
TTITLE8=Usted
TTITLE9=Dia Que Yo Naci
TTITLE10=Boda Gris
TTITLE11=Copa Rota
EXTD=YEAR: 2000
EXTT0=
EXTT1=
EXTT2=
EXTT3=
EXTT4=
EXTT5=
EXTT6=
EXTT7=
EXTT8=
EXTT9=
EXTT10=
EXTT11=
PLAYORDER=
